<?xml version="1.0" encoding="utf-8"?>
<!-- Generator: Adobe Illustrator 26.0.2, SVG Export Plug-In . SVG Version: 6.00 Build 0)  -->
<svg version="1.1" id="Layer_1" xmlns="http://www.w3.org/2000/svg" xmlns:xlink="http://www.w3.org/1999/xlink" x="0px" y="0px"
	 viewBox="0 0 1000 600" style="enable-background:new 0 0 1000 600;" xml:space="preserve">
<style type="text/css">
	.st0{fill:url(#SVGID_1_);}
	.st1{fill:url(#SVGID_00000148655772428508011350000008899981091080029059_);}
	.st2{fill:url(#SVGID_00000059285479460371098840000010644439578510088097_);}
	.st3{fill:url(#SVGID_00000079460040074644632020000012278672554568725671_);}
	.st4{fill:url(#SVGID_00000127045422726782418410000001090021967177435819_);}
	.st5{fill:url(#SVGID_00000068663941005275942730000005367119081123125175_);}
	.st6{fill:url(#SVGID_00000067941359920661001550000015922046132534207875_);}
	.st7{fill:url(#SVGID_00000141443444862893066020000008226215830674270625_);}
	.st8{fill:url(#SVGID_00000132771987982403490870000015378296074145584315_);}
	.st9{fill:url(#SVGID_00000041296296872474494600000012045274871859764926_);}
	.st10{fill:url(#SVGID_00000030449628696589812710000009560967292298446742_);}
	.st11{fill:url(#SVGID_00000159436601873739566480000018342603907932867974_);}
	.st12{fill:url(#SVGID_00000136390896579366191880000016377313045933114243_);}
	.st13{fill:#CF2228;}
	.st14{fill:#F0B51D;}
	.st15{fill:url(#SVGID_00000177453882277850905800000004161386990686207924_);}
	.st16{fill:url(#SVGID_00000159447028145840521030000013622658863687365251_);}
	.st17{fill:#263C87;}
	.st18{fill:#C68C17;}
	.st19{fill:#FFFFFF;}
	.st20{fill:#B51521;}
	.st21{fill:#C11623;}
	.st22{fill:#1F3677;}
	.st23{fill:#172E60;}
</style>
<g>
	<path class="st14" d="M500,167.2c0,0-51.4,38.5-97.4,37.7c0,0,0,21.8,0,89.7c0,67.9,97.4,110.2,97.4,110.2s97.4-42.3,97.4-110.2
		c0-67.9,0-89.7,0-89.7C551.4,205.6,500,167.2,500,167.2z"/>
	<g>
		<path class="st13" d="M500,393.7c-17.7-8.6-87.3-46-87.3-99.1v-80c36.7-3.2,73.2-25.5,87.3-35.1c14.1,9.5,50.7,31.9,87.3,35.1v80
			C587.3,347.7,517.7,385.1,500,393.7z"/>
	</g>
	<g>
		<g>
			<path class="st21" d="M431.6,211.3c-6.2,1.5-12.6,2.7-19,3.3v25l77.4,149c1.4,0.8,2.8,1.5,4,2.2L431.6,211.3z"/>
		</g>
		<g>
			<path class="st21" d="M485.2,385.8l-72.5-106.7v15.5c0,7.6,1.5,15,4,21.9l56.8,62.1C477.6,381.3,481.5,383.7,485.2,385.8z"/>
		</g>
		<g>
			<path class="st21" d="M513.4,386.6c3-1.7,6.3-3.7,9.8-5.9l62.6-72.6c1-4.4,1.5-8.9,1.5-13.6v-23.9L513.4,386.6z"/>
		</g>
		<g>
			<path class="st21" d="M484,189.4c-8.2,4.7-18.1,9.8-29,14.2L496.5,392c0.9,0.4,1.7,0.8,2.4,1.2L484,189.4z"/>
		</g>
		<g>
			<path class="st21" d="M500.6,393.4c0.7-0.3,1.5-0.7,2.3-1.2l36.4-191c-11.5-5.1-21.7-10.7-29.5-15.5L500.6,393.4z"/>
		</g>
		<g>
			<path class="st21" d="M587.3,226.9v-12.3c-8.4-0.7-16.7-2.5-24.8-4.8l-57.3,181.3c1.2-0.6,2.4-1.3,3.7-2L587.3,226.9z"/>
		</g>
	</g>
	<g>
		<g>
			<path class="st17" d="M384.5,356.7c-0.5,0.2-0.9,0.4-1.1,1.2l-1.8,5.8c-0.3,1.1-0.7,1.6-1.7,1.9l-6.2,2c-1.2,0.4-2.1-0.3-2.5-1.6
				l-1.6-5c-0.5-1.5,0.3-2.6,1.2-2.9l5.4-1.7c0.3-0.1,0.4,0,0.5,0.2c0.1,0.3-0.6,2.6-0.6,2.6c-0.1,0.2-0.2,0.4-0.7,0.5l-2.7,0.9
				c-0.4,0.1-0.5,0.5-0.4,0.7l0.9,2.7c0.1,0.4,0.4,0.5,0.8,0.4l4-1.3c0.5-0.2,0.9-0.5,1.1-1.1l1.8-5.7c0.3-1,0.6-1.7,1.7-2l5.8-1.9
				c1.2-0.4,2.1,0.3,2.5,1.6l1.6,5c0.5,1.5-0.3,2.6-1.2,2.9l-4.5,1.5c-0.3,0.1-0.4,0-0.5-0.2c-0.1-0.3,0.6-2.6,0.6-2.6
				c0.1-0.2,0.2-0.4,0.7-0.5l1.9-0.6c0.4-0.1,0.5-0.4,0.4-0.7l-0.9-2.7c-0.1-0.4-0.4-0.5-0.8-0.4L384.5,356.7z"/>
			<path class="st17" d="M374.9,375.3c0.3-0.2,1.6,0.6,2.4,0.2l15.8-7.7c0.8-0.4,1-1.9,1.3-2c0.2-0.1,0.3,0,0.4,0.2l3.8,7.9
				c0.8,1.6,0.5,2.8-1,3.5l-7,3.4c-0.6,0.3-1.3,0.1-1.9-0.2l-6.5-3.8c-0.3-0.2-0.6-0.1-0.8,0l-2.8,1.4c-0.8,0.4-1,1.9-1.3,2
				c-0.2,0.1-0.3,0-0.4-0.2l-2.1-4.4C374.7,375.6,374.7,375.4,374.9,375.3z M393.9,370.8l-8.7,4.2c-0.2,0.1-0.2,0.2-0.2,0.3
				c0.1,0.1,0.2,0.2,0.4,0.3l3.1,1.8c0.7,0.4,1.1,0.5,1.6,0.2l5.4-2.6c0.6-0.3,0.7-0.6,0.4-1.2l-1.4-2.9
				C394.5,370.8,394.2,370.6,393.9,370.8z"/>
			<path class="st17" d="M388.6,400.1l-3.3-4.8c-0.8-1.1-0.7-2.3,0.3-3l15.3-10.4c1-0.7,2.1-0.3,2.9,0.8l3.3,4.8
				c0.9,1.3,0.5,2.6-0.3,3.1l-15.1,10.2C390.9,401.4,389.5,401.3,388.6,400.1z M404.5,388l-1.9-2.9c-0.2-0.4-0.5-0.4-0.9-0.1
				l-13.5,9.1c-0.4,0.2-0.4,0.5-0.2,0.9l1.9,2.9c0.1,0.2,0.5,0.3,0.8,0.1l13.5-9.2C404.6,388.6,404.7,388.2,404.5,388z"/>
			<path class="st17" d="M395.4,408.5c0.3-0.3,1.7,0.1,2.4-0.5l12.9-11.9c0.6-0.6,0.4-2.1,0.7-2.3c0.2-0.1,0.3-0.1,0.4,0l6.1,6.7
				c1.2,1.3,1.3,2.5,0,3.7l-5.3,4.9c-0.5,0.5-1,0.5-1.6,0.4l-2.3-0.5c-1.7,3-3.7,6.8-3.8,7.4c-0.3,1.2,0,1.9-0.3,2.1
				c-0.2,0.1-0.3,0.1-0.4,0l-3.2-3.5c-0.1-0.2-0.2-0.3,0-0.4c0.3-0.3,0.9,0.1,1.2-0.2c0.1-0.1,0.2-0.2,0.3-0.5
				c0.7-1.2,1.9-3.6,3-5.7l-2.2-0.5c-0.3-0.1-0.6,0-0.8,0.3l-2.7,2.5c-0.6,0.6-0.4,2.1-0.7,2.3c-0.2,0.1-0.3,0.1-0.4,0l-3.3-3.6
				C395.2,408.8,395.2,408.7,395.4,408.5z M412.2,398.7l-6.6,6.1c-0.2,0.1-0.2,0.3-0.1,0.4c0.1,0.1,0.4,0.2,0.4,0.2l3.9,1
				c0.8,0.2,1.2,0.1,1.6-0.2l3.9-3.6c0.5-0.5,0.5-0.8,0.1-1.3l-2.4-2.6C412.8,398.5,412.5,398.5,412.2,398.7z"/>
			<path class="st17" d="M429.9,411.7c0.7,0.5,1.8,1.1,2.1,1.4c0.2,0.1,0.2,0.3,0,0.4l-2.4,2.9c-0.1,0.2-0.3,0.2-0.4,0.1
				c-0.2-0.1-0.1-0.4-0.2-1.6c0-0.7-0.5-1.2-1.5-2c-0.2-0.2-0.5-0.1-0.7,0.1l-10.6,13c-0.5,0.7-0.1,2.1-0.3,2.4
				c-0.1,0.2-0.3,0.2-0.4,0l-3.7-3.1c-0.2-0.1-0.2-0.3-0.1-0.4c0.2-0.3,1.7-0.1,2.3-0.8l10.6-13c0.2-0.2,0.2-0.5-0.1-0.7
				c-0.9-0.8-1.5-1.2-2.3-1.1c-1.1,0.2-1.4,0.3-1.6,0.2c-0.2-0.1-0.2-0.3,0-0.4l2.4-2.9c0.1-0.2,0.3-0.2,0.4-0.1
				c0.3,0.2,1.1,1.3,1.8,1.8L429.9,411.7z"/>
			<path class="st17" d="M435,423.1c-0.3,0.5-0.4,0.9-0.1,1.6l2.3,5.6c0.4,1,0.5,1.7-0.1,2.6l-3.4,5.5c-0.6,1-1.8,1.1-3,0.4
				l-4.4-2.7c-1.3-0.8-1.5-2.2-1-3l3-4.8c0.1-0.2,0.3-0.3,0.5-0.2c0.3,0.2,1.2,2.4,1.2,2.4c0.1,0.2,0.1,0.5-0.2,0.9l-1.5,2.4
				c-0.2,0.3-0.1,0.7,0.2,0.8l2.4,1.5c0.4,0.2,0.6,0.1,0.9-0.2l2.2-3.6c0.3-0.5,0.3-0.9,0.1-1.5l-2.3-5.5c-0.4-1-0.6-1.7,0-2.6
				l3.2-5.2c0.6-1,1.8-1.1,3-0.4l4.4,2.7c1.3,0.8,1.5,2.2,1,3l-2.5,4c-0.1,0.2-0.3,0.3-0.5,0.2c-0.3-0.2-1.2-2.4-1.2-2.4
				c-0.1-0.2-0.1-0.5,0.2-0.9l1-1.7c0.2-0.3,0.1-0.7-0.2-0.8l-2.4-1.5c-0.4-0.2-0.6-0.1-0.9,0.2L435,423.1z"/>
			<path class="st17" d="M467.3,433.1c0.3-0.8-0.7-2-0.6-2.4c0.1-0.2,0.2-0.2,0.4-0.2l4.6,1.5c0.2,0.1,0.3,0.2,0.2,0.4
				c-0.1,0.4-1.6,0.8-1.8,1.6l-5.4,16.7c-0.3,0.8,0.7,2,0.6,2.4c-0.1,0.2-0.2,0.2-0.4,0.2l-4.6-1.5c-0.2-0.1-0.3-0.2-0.2-0.4
				c0.1-0.4,1.6-0.8,1.8-1.6l1.5-4.6c0.1-0.2,0-0.4-0.1-0.4c-0.1,0-0.3,0-0.6,0.1l-5.4,0.9c-0.2,0-0.4,0.2-0.4,0.2l-0.6,2
				c-0.3,0.8,0.7,2,0.6,2.4c-0.1,0.2-0.2,0.2-0.4,0.2l-4.6-1.5c-0.2-0.1-0.3-0.2-0.2-0.4c0.1-0.4,1.6-0.8,1.8-1.6l5.4-16.7
				c0.3-0.8-0.7-2-0.6-2.4c0.1-0.2,0.2-0.2,0.4-0.2l4.6,1.5c0.2,0.1,0.3,0.2,0.2,0.4c-0.1,0.4-1.6,0.8-1.8,1.6l-3.6,11.2
				c0,0.1,0,0.2,0,0.2c0.1,0,0.3,0,0.3,0l5.9-0.9c0.2,0,0.3-0.2,0.4-0.3L467.3,433.1z"/>
			<path class="st17" d="M486.5,434.6c0.3,0,0.4,0.1,0.4,0.4c0,0.2-0.9,1.2-1,1.8c-0.1,0.8,1.6,16.9,1.7,17.6
				c0.2,1.5,1.2,2.6,1.2,2.9c0,0.2-0.2,0.3-0.5,0.2l-4.6-0.6c-0.2,0-0.5-0.1-0.4-0.4c0-0.3,1.3-1,1.3-1.4c0.1-0.4-0.4-4-0.4-4.4
				c0-0.2-0.1-0.3-0.2-0.3c-0.1,0-0.3,0-0.6,0.1l-5.4,2.1c-0.3,0.1-0.4,0.2-0.5,0.4l-0.1,0.5c-0.1,0.9,0.8,2.1,0.8,2.3
				c0,0.2-0.1,0.3-0.5,0.2l-4.8-0.7c-0.2,0-0.3-0.1-0.3-0.3c0-0.3,1.3-1.1,1.7-1.9c0.4-0.8,6.6-16.4,6.7-16.9c0.1-0.6-0.5-1.7-0.5-2
				c0-0.2,0.1-0.3,0.5-0.2L486.5,434.6z M483.2,439c0,0,0-0.2-0.2-0.2c-0.1,0-0.2,0.2-0.2,0.2l-3.7,9.9c0,0.1,0,0.2,0.1,0.2
				c0,0,0.1,0,0.2,0c0.9-0.4,3.5-1.3,4.3-1.7c0.1-0.1,0.2-0.1,0.2-0.2c0-0.1,0-0.3,0-0.3L483.2,439z"/>
			<path class="st17" d="M503.4,455.2c0.3,0,0.6-0.2,0.6-0.6l0-1.9c0-0.5,0.1-0.7,0.3-0.9c0,0,2-1.4,2.3-1.5c0.3,0,0.4,0.1,0.4,0.4
				l0.1,6c0,0.5-0.3,0.8-0.9,0.8l-9.5,0.2c-0.2,0-0.3-0.1-0.3-0.3c0-0.4,1.2-1.2,1.2-2.1l-0.3-17.6c0-0.9-1.3-1.7-1.3-2
				c0-0.2,0.1-0.3,0.3-0.3l4.8-0.1c0.2,0,0.3,0.1,0.3,0.3c0,0.4-1.2,1.2-1.2,2.1l0.3,16.9c0,0.4,0.2,0.6,0.6,0.6L503.4,455.2z"/>
			<path class="st17" d="M521.4,453.6c0.3,0,0.5-0.3,0.5-0.7l-0.3-1.9c-0.1-0.5,0-0.7,0.2-0.9c0,0,1.8-1.7,2-1.7
				c0.3,0,0.4,0.1,0.4,0.4l0.9,5.9c0.1,0.5-0.1,0.9-0.8,0.9l-9.4,1.4c-0.2,0-0.3,0-0.4-0.2c-0.1-0.4,1.1-1.4,1-2.2l-2.6-17.4
				c-0.1-0.8-1.5-1.5-1.6-1.9c0-0.2,0.1-0.3,0.3-0.3l4.8-0.7c0.2,0,0.3,0,0.4,0.2c0.1,0.4-1.1,1.4-1,2.2l2.5,16.7
				c0.1,0.4,0.3,0.6,0.7,0.6L521.4,453.6z"/>
			<path class="st17" d="M553.5,446.8l-5.4,2.2c-1.3,0.5-2.4,0.2-2.8-0.9l-6.9-17.2c-0.5-1.1,0.1-2.1,1.4-2.6l5.4-2.2
				c1.4-0.6,2.7,0.1,3,1L555,444C555.4,444.8,555,446.2,553.5,446.8z M545.1,428.7l-3.2,1.3c-0.4,0.2-0.5,0.4-0.3,0.8l6.1,15.1
				c0.2,0.4,0.4,0.5,0.8,0.4l3.2-1.3c0.2-0.1,0.4-0.4,0.3-0.8l-6.1-15.1C545.7,428.7,545.3,428.6,545.1,428.7z"/>
			<path class="st17" d="M563.6,442.1c-0.2,0.1-0.3,0.1-0.4-0.1c-0.2-0.3,0.5-1.7,0.1-2.4l-8.8-15.2c-0.4-0.7-1.9-0.8-2.1-1.2
				c-0.1-0.2,0-0.3,0.1-0.4l8.9-5.2c0.6-0.3,0.9-0.2,1.1,0.2l1.7,2.9c0.3,0.4,0.3,0.7,0.2,0.9c0,0-1,2.2-1.3,2.4
				c-0.2,0.1-0.4,0.1-0.5-0.2l-1.5-2.7c-0.2-0.3-0.4-0.3-0.6-0.2l-3,1.7c-0.2,0.1-0.3,0.5-0.1,0.8l4.4,7.6l2.1-3.8
				c0.1-0.3,0.3-0.5,0.4-0.6c0.2-0.1,0.3,0,0.4,0.2l1.2,2c0.2,0.3,0.1,0.5-0.2,1l-2.3,4.1l2.4,4.2c0.4,0.7,1.9,0.8,2.1,1.2
				c0.1,0.2,0,0.3-0.1,0.4L563.6,442.1z"/>
			<path class="st17" d="M589.9,424c-0.2,0.1-0.3,0.2-0.4,0c-0.3-0.3,0.1-1.8-0.5-2.4l-12.1-12.7c-0.6-0.6-2.1-0.3-2.3-0.6
				c-0.1-0.2-0.1-0.3,0-0.4l7.5-7.1c0.5-0.4,0.9-0.4,1.2-0.1l2.3,2.4c0.3,0.4,0.4,0.6,0.4,0.8c0,0-0.5,2.4-0.7,2.6
				c-0.2,0.2-0.4,0.2-0.6,0l-2.1-2.2c-0.2-0.2-0.4-0.2-0.6-0.1l-2.5,2.4c-0.2,0.2-0.2,0.5,0,0.8l6.1,6.4l1.2-4.2
				c0.1-0.3,0.1-0.5,0.2-0.6c0.1-0.1,0.3-0.1,0.5,0.1l1.6,1.7c0.2,0.3,0.2,0.5,0.1,1l-1.2,4.5l3.3,3.5c0.6,0.6,2.1,0.3,2.3,0.6
				c0.1,0.1,0.1,0.3,0,0.4L589.9,424z"/>
			<path class="st17" d="M590.3,391.1c0.2-0.3,0.3-0.3,0.5-0.1c0.2,0.1,0.5,1.4,1,1.8c0.6,0.5,15.3,7.3,15.9,7.6
				c1.4,0.7,2.9,0.3,3.1,0.4c0.2,0.1,0.2,0.3,0,0.5l-2.9,3.6c-0.1,0.2-0.3,0.3-0.5,0.2c-0.2-0.2-0.2-1.6-0.5-1.9
				c-0.3-0.3-3.6-1.7-4-1.9c-0.2-0.1-0.3-0.1-0.4,0.1c-0.1,0.1-0.1,0.3-0.2,0.6l-1,5.7c-0.1,0.3-0.1,0.5,0.1,0.6l0.4,0.3
				c0.7,0.6,2.2,0.4,2.3,0.5c0.2,0.1,0.2,0.3,0,0.5l-3.1,3.8c-0.1,0.2-0.3,0.2-0.4,0.1c-0.2-0.2-0.2-1.7-0.7-2.4
				c-0.5-0.7-10.6-14.1-11.1-14.5c-0.4-0.4-1.8-0.4-1.9-0.6c-0.2-0.1-0.2-0.3,0-0.5L590.3,391.1z M592.5,396.1c0,0-0.2-0.1-0.3,0.1
				c-0.1,0.1,0,0.3,0,0.3l6.6,8.3c0.1,0.1,0.1,0.1,0.2,0c0,0,0-0.1,0-0.2c0.2-0.9,0.7-3.7,0.8-4.5c0-0.1,0-0.2-0.1-0.3
				c0,0-0.3-0.1-0.3-0.1L592.5,396.1z"/>
			<path class="st17" d="M614.7,382.6c0,0-9.9-10-11.1-11.2c-0.5-0.5-0.5-0.9-0.3-1.3l1.7-3.2c0.1-0.2,0.2-0.2,0.4-0.1
				c0.3,0.2,0.5,1.7,1.2,2.1l15.5,8.3c0.8,0.4,2.1-0.3,2.4-0.1c0.2,0.1,0.2,0.2,0.1,0.4l-2.2,4.1c-0.1,0.2-0.2,0.2-0.4,0.1
				c-0.3-0.2-0.5-1.7-1.2-2.1l-9.8-5.3c-0.2-0.1-0.4-0.2-0.4,0c-0.1,0.1,0,0.2,0.2,0.4l8.3,8.3c0.1,0.1,0.2,0.2,0.3,0.2
				c0.6,0.3,1.4,0.2,1.7,0.4c0.2,0.1,0.2,0.2,0.1,0.4l-1.7,3.2c-0.1,0.2-0.2,0.2-0.4,0.1c-0.3-0.2-0.6-0.9-1.2-1.2
				c-0.1-0.1-0.2-0.1-0.4-0.1l-11.6-2.3c-0.2,0-0.3,0-0.4,0.1c-0.1,0.1,0.1,0.2,0.3,0.4l9.8,5.3c0.8,0.4,2.1-0.3,2.4-0.1
				c0.2,0.1,0.2,0.2,0.1,0.4l-2.2,4.1c-0.1,0.2-0.2,0.2-0.4,0.1c-0.3-0.2-0.5-1.7-1.2-2.1l-15.5-8.3c-0.8-0.4-2.1,0.3-2.4,0.1
				c-0.2-0.1-0.2-0.2-0.1-0.4l1.7-3.2c0.2-0.4,0.6-0.6,1.2-0.4c1.6,0.3,15.5,3.1,15.5,3.1s0.2,0,0.2,0
				C614.8,382.8,614.7,382.6,614.7,382.6z"/>
			<path class="st17" d="M612,355.6c-0.3-0.1-0.6,0-0.7,0.3l-1.1,3.3c-0.1,0.3,0,0.4,0.3,0.5l8.5,2.8l-1-4.3
				c-0.1-0.3-0.1-0.5-0.1-0.7c0.1-0.2,0.3-0.2,0.4-0.1l2.2,0.7c0.3,0.1,0.4,0.4,0.5,0.8l1,4.6l4.1,1.4c0.3,0.1,0.5,0,0.6-0.3
				l1.1-3.2c0.1-0.3,0-0.6-0.4-0.7l-1.8-0.6c-0.5-0.2-0.6-0.3-0.7-0.5c0,0-0.6-2.3-0.5-2.6c0.1-0.3,0.3-0.3,0.5-0.2l5.5,1.8
				c0.5,0.2,0.7,0.5,0.5,1.1l-3.3,9.8c-0.1,0.2-0.2,0.3-0.4,0.2c-0.4-0.1-0.7-1.6-1.6-1.9l-16.7-5.5c-0.8-0.3-2,0.7-2.4,0.6
				c-0.2-0.1-0.2-0.2-0.2-0.4l3.3-9.8c0.2-0.6,0.6-0.8,1-0.6l3.2,1.1c0.5,0.2,0.6,0.3,0.7,0.5c0,0,0.7,2.3,0.6,2.6
				c-0.1,0.3-0.3,0.3-0.5,0.2L612,355.6z"/>
		</g>
	</g>
	<path class="st22" d="M413.1,336.5c-19.6,3.7-39,8.6-58.1,14.9c3.6-10.6,7.6-21.1,12-31.7c-9.2-6.7-18.7-13.2-28.6-19.4
		c21.3-6.9,43-12.4,64.8-16.6C406.4,301.3,409.7,318.9,413.1,336.5z"/>
	<path class="st22" d="M586.9,336.5c19.6,3.7,39,8.6,58.1,14.9c-3.6-10.6-7.6-21.1-12-31.7c9.2-6.7,18.7-13.2,28.6-19.4
		c-21.3-6.9-43-12.4-64.8-16.6C593.6,301.3,590.3,318.9,586.9,336.5z"/>
	<path class="st23" d="M614.8,336.1c-9.4-0.1-18.6,0-27.9,0.4c0.4-2.1,0.8-4.2,1.2-6.3C597.1,331.9,606,333.9,614.8,336.1z"/>
	<path class="st23" d="M385.2,336.1c9.4-0.1,18.6,0,27.9,0.4c-0.4-2.1-0.8-4.2-1.2-6.3C402.9,331.9,394,333.9,385.2,336.1z"/>
	<path class="st17" d="M614.8,336.1c-75.4-18.7-154.2-18.7-229.6,0c-4.3-17.4-8.6-34.8-13-52.2c83.9-20.9,171.6-20.9,255.5,0
		C623.4,301.3,619.1,318.7,614.8,336.1z"/>
	<g>
		<g>
			
				<rect x="411.3" y="287.2" transform="matrix(0.9863 -0.1651 0.1651 0.9863 -42.9611 72.0007)" class="st13" width="0.8" height="14.6"/>
		</g>
		<g>
			<polygon class="st13" points="421.1,308.8 421,307.9 413.8,309.1 416.1,322.8 408.4,324.1 407.8,325.1 417,323.6 414.7,309.9 			
				"/>
		</g>
		<g>
			<path class="st13" d="M402,288.9l-0.3-0.2l-0.2,0l1.4,0.9C402.6,289.4,402.4,289.1,402,288.9z"/>
		</g>
		<g>
			<polygon class="st13" points="424,321.5 424.2,322.4 433.6,320.8 432.5,320.1 			"/>
		</g>
		<g>
			<polygon class="st13" points="456,312 446.4,313 445.6,318.5 437.9,319.2 436.8,320.2 446.5,319.2 447.3,313.8 456.2,312.8 			
				"/>
		</g>
		<g>
			<path class="st13" d="M426.5,285.7l0.8-1.2l-1.5,0.3l-0.1,0.2c-0.4,0.6-0.6,0.9-0.7,1.1c-0.3,0.7-0.4,1.4-0.2,2.1l4.7,28.3
				c0.2,1.2,0.9,2.1,1.9,2.7l0.1,0.1c-0.5-0.6-0.9-1.2-1.1-2.1l-4.7-28.3c-0.2-0.7-0.1-1.4,0.2-2.1
				C425.9,286.6,426.1,286.2,426.5,285.7z"/>
		</g>
		<g>
			<path class="st13" d="M479.5,280.7l1.1-1.1l-1.7,0.1l-0.3,0.3c-0.3,0.3-0.6,0.7-0.9,1.1c-0.4,0.5-0.5,1.2-0.4,2l1.4,28.7
				c0.1,1.2,0.6,2.2,1.5,2.9l0.6,0.4c-0.7-0.7-1.1-1.5-1.2-2.6l-1.4-28.7c-0.1-0.8,0-1.5,0.4-2C478.8,281.4,479.1,281.1,479.5,280.7
				z"/>
		</g>
		<g>
			<polygon class="st13" points="545.5,304.8 546.6,304.9 550.2,293.2 549.9,290.7 			"/>
		</g>
		<g>
			<polygon class="st13" points="585.7,305.7 585.9,304.3 580.1,285.1 579.4,285 			"/>
		</g>
		<g>
			<polygon class="st13" points="454.1,281.4 465.6,316.4 458.1,317.2 458.3,318 466.5,317.2 454.7,281.3 			"/>
		</g>
		<g>
			<polygon class="st13" points="447.6,305.8 448.6,305.7 449.9,293.2 449.2,291 			"/>
		</g>
		<g>
			<path class="st13" d="M528.2,280.2c-0.4,0.3-0.7,0.6-1,1c-0.4,0.5-0.6,1.1-0.6,1.9l-1.3,28.7c0,1.2,0.4,2.3,1.3,3.1l1.3,1.2
				l-10.9-0.5l-0.7,0.7l12.5,0.6l-1.3-1.2c-0.9-0.8-1.3-1.8-1.3-3.1l1.3-28.7c0-0.8,0.2-1.4,0.6-1.9c0.3-0.3,0.6-0.7,1-1l1.2-1
				l-1.7-0.1L528.2,280.2z"/>
		</g>
		<g>
			<polygon class="st13" points="552.5,312.6 542.8,311.7 541,316.9 533.2,316.1 532.3,316.7 541.9,317.6 543.7,312.4 552.5,313.3 
							"/>
		</g>
		<g>
			<polygon class="st13" points="556.6,282 561,318.8 553.7,318.1 553.7,318.8 561.9,319.6 557.4,282.1 			"/>
		</g>
		<g>
			<path class="st13" d="M591.6,320.4l5.4-32.4l-1-0.2l-5.3,31.9c-0.1,0.9,0.3,1.8,1,2.6l1.4,1.6l-9.2-1.5l0.2,0.6l9.9,1.6l-1.4-1.6
				C591.8,322.2,591.5,321.3,591.6,320.4z"/>
		</g>
		<g>
			<polygon class="st13" points="577.4,302.4 574.3,320.8 568.3,319.8 568.2,320.4 575.2,321.5 578.1,304.6 			"/>
		</g>
		<g>
			<path class="st13" d="M468.5,280.5l-0.4-0.3l0,0l0.6,0.5C468.6,280.6,468.6,280.6,468.5,280.5z"/>
		</g>
		<g>
			
				<rect x="485.9" y="285.8" transform="matrix(1 -2.287634e-03 2.287634e-03 1 -0.6534 1.1226)" class="st13" width="8.9" height="0.7"/>
		</g>
		<g>
			<path class="st13" d="M511.7,279.3l0,6.5l-9.7,0l0.1,25.2c0.1,1.3,0.6,2.4,1.6,3.2l0.8,0.7c-0.9-0.8-1.5-1.8-1.5-3.1l-0.1-25.2
				l9.7,0l0-7.2L511.7,279.3z"/>
		</g>
		<g>
			<polygon class="st13" points="470.8,316.2 470.1,317 482.6,316.4 481.6,315.7 			"/>
		</g>
		<g>
			<polygon class="st13" points="493.9,315.3 493.1,316 506,316 505,315.3 			"/>
		</g>
	</g>
	<g>
		<path class="st14" d="M551.8,142.3c0,0-4.2,15.1-28.7,25.4c-24.5,10.3-49.9,16.1-34.5,38.7c0,0-2.3-10,21.9-19.4
			C534.7,177.7,557.6,163.6,551.8,142.3z"/>
		<path class="st14" d="M510.9,193.8c0,0,4.2,14.5-18.7,18c-22.9,3.5-41.2,7.1-37.4,24.2s35.7,32.4,35.7,32.4s-18.3-11.4-20.9-24
			c-2.6-12.6,5.8-15.8,33.5-22.2c0,0-7.7,2.9-11.6,5.5c0,0,26.8,48.4,73.1,56.1c0,0-47.7-28-52.2-64.8
			C512.5,218.9,530.2,203.9,510.9,193.8z"/>
		<circle class="st14" cx="495.4" cy="157.4" r="10"/>
	</g>
	<g>
		<path class="st17" d="M551.8,142.3c0,0-0.6,14.8-25.1,25.1c-24.5,10.3-49.3,14.8-38,39c0,0,1.3-10.3,25.4-19.6
			S557.6,163.6,551.8,142.3z"/>
		<path class="st17" d="M510.9,193.8c0,0,7.7,14.2-15.1,17.7c-22.9,3.5-41.2,7.1-37.4,24.2c3.9,17.1,34.1,33.8,34.1,33.8
			s-16.7-12.9-19.3-25.4c-2.6-12.6,5.8-15.8,33.5-22.2c0,0-7.7,2.9-11.6,5.5c0,0,26.4,45.7,69.6,56.4c0,0-44.1-28.3-48.6-65.1
			C516.1,218.6,530.2,203.9,510.9,193.8z"/>
		<circle class="st17" cx="499" cy="157.1" r="10"/>
	</g>
	<g>
		<path class="st14" d="M428.2,315c0.2,1.2,0.9,2.1,1.9,2.7l1.4,0.9l-9.4,1.6l-2.3-13.7l-7.2,1.2l2.3,13.7l-9.2,1.5l1-1.6
			c0.3-0.4,0.4-0.7,0.5-0.8c0.3-0.6,0.3-1.3,0.2-2l-4.7-28.3c-0.2-1.2-0.8-2.1-1.8-2.7l-1.4-0.9l9.4-1.6l2.6,15.3l7.2-1.2l-2.6-15.3
			l9.2-1.5l-0.8,1.2c-0.4,0.6-0.6,0.9-0.7,1.1c-0.3,0.7-0.4,1.4-0.2,2.1L428.2,315z"/>
		<path class="st14" d="M452.5,279.1l11.8,35.9l-8.2,0.8l-1.4-5.2l-9.6,1l-0.7,5.4l-9.7,1l1.4-1.3c0.7-0.6,1.1-1.4,1.3-2.3
			c1.5-7.9,2.7-17.6,3.6-29.2c0.1-1.4-0.3-2.6-1.3-3.8l-0.8-0.9L452.5,279.1z M447.9,289.6l-1.6,14.8l6.4-0.6L447.9,289.6z"/>
		<path class="st14" d="M477.4,310.2c0.1,1.2,0.6,2.2,1.5,2.9l1.4,1l-12.5,0.6l1-1.1c0-0.1,0.2-0.2,0.3-0.4c0.3-0.3,0.5-0.6,0.6-0.7
			c0.4-0.6,0.5-1.3,0.4-2l-1.4-28.7c0-1.1-0.5-2.1-1.6-2.9l-1.3-1l12.5-0.6l-1.1,1.1c-0.3,0.3-0.6,0.7-0.9,1.1
			c-0.4,0.5-0.5,1.2-0.4,2L477.4,310.2z"/>
		<path class="st14" d="M483.8,277.1l26.7-0.1l0,7.2l-9.7,0l0.1,25.2c0.1,1.3,0.6,2.4,1.6,3.2l1.4,1.1l-12.9,0l1.1-1.1
			c1-1,1.6-2.1,1.6-3.2l-0.1-25.2l-9.8,0L483.8,277.1z"/>
		<path class="st14" d="M524.1,310.3c0,1.2,0.4,2.3,1.3,3.1l1.3,1.2l-12.5-0.6l1.1-1c0.1-0.1,0.2-0.2,0.4-0.3
			c0.3-0.3,0.5-0.5,0.6-0.6c0.4-0.6,0.7-1.2,0.6-2l1.3-28.7c0.1-1.1-0.3-2.1-1.3-3l-1.2-1.2l12.5,0.6l-1.2,1c-0.4,0.3-0.7,0.6-1,1
			c-0.4,0.5-0.6,1.1-0.6,1.9L524.1,310.3z"/>
		<path class="st14" d="M555.3,279.9l4.5,37.5l-8.2-0.8l-0.4-5.4l-9.6-0.9l-1.8,5.2l-9.7-0.9l1.7-1c0.8-0.5,1.4-1.1,1.7-2
			c3-7.4,6.1-16.7,9.3-27.9c0.4-1.3,0.2-2.7-0.6-4l-0.6-1.1L555.3,279.9z M548.7,289.2l-4.4,14.2l6.4,0.6L548.7,289.2z"/>
		<path class="st14" d="M591.8,322.4l-9.9-1.6l-5.8-19.9l-3.1,18.4l-7-1.2l5.3-32.1c0.1-0.5,0.1-1,0-1.5l-0.9-1.5l-1.5-1.7l8.9,1.5
			l6.5,21.3l3.3-19.7l7.1,1.2l-5.4,32.4c-0.1,0.9,0.3,1.8,1,2.6L591.8,322.4z"/>
	</g>
</g>
</svg>
